<?xml version="1.0" encoding="UTF-8" standalone="no"?>
<!-- Generator: Adobe Illustrator 15.0.0, SVG Export Plug-In . SVG Version: 6.00 Build 0)  -->

<svg
   xmlns:dc="http://purl.org/dc/elements/1.1/"
   xmlns:cc="http://creativecommons.org/ns#"
   xmlns:rdf="http://www.w3.org/1999/02/22-rdf-syntax-ns#"
   xmlns:svg="http://www.w3.org/2000/svg"
   xmlns="http://www.w3.org/2000/svg"
   xmlns:sodipodi="http://sodipodi.sourceforge.net/DTD/sodipodi-0.dtd"
   xmlns:inkscape="http://www.inkscape.org/namespaces/inkscape"
   version="1.1"
   id="Layer_1"
   x="0px"
   y="0px"
   width="123.07829"
   height="76.509338"
   viewBox="0 0 123.07829 76.509338"
   enable-background="new 0 0 82 82"
   xml:space="preserve"
   sodipodi:docname="MH-Z19_CO2_BB.svg"
   inkscape:version="0.92.1 r15371"><metadata
     id="metadata65"><rdf:RDF><cc:Work
         rdf:about=""><dc:format>image/svg+xml</dc:format><dc:type
           rdf:resource="http://purl.org/dc/dcmitype/StillImage" /><dc:title /></cc:Work></rdf:RDF></metadata><defs
     id="defs63" /><sodipodi:namedview
     pagecolor="#ffffff"
     bordercolor="#666666"
     borderopacity="1"
     objecttolerance="10"
     gridtolerance="10"
     guidetolerance="10"
     inkscape:pageopacity="0"
     inkscape:pageshadow="2"
     inkscape:window-width="1920"
     inkscape:window-height="1017"
     id="namedview61"
     showgrid="false"
     inkscape:zoom="7.7769434"
     inkscape:cx="41.071736"
     inkscape:cy="42.216573"
     inkscape:window-x="-8"
     inkscape:window-y="-8"
     inkscape:window-maximized="1"
     inkscape:current-layer="Layer_1"
     fit-margin-top="0"
     fit-margin-left="0"
     fit-margin-right="0"
     fit-margin-bottom="0" /><g
     id="g5772"
     transform="translate(-272.94141,-50.9592)"><rect
       style="fill:#008000;fill-opacity:1;stroke:none;stroke-width:0.56142676;stroke-miterlimit:4;stroke-dasharray:none;stroke-opacity:1"
       id="rect5158"
       width="11.302933"
       height="49.453926"
       x="384.71677"
       y="63.600361" /><rect
       y="73.034363"
       x="272.94141"
       height="40.019909"
       width="11.635372"
       id="rect5156"
       style="fill:#008000;fill-opacity:1;stroke:none;stroke-width:0.51241916;stroke-miterlimit:4;stroke-dasharray:none;stroke-opacity:1" /><path
       id="rect5140"
       d="m 288.22852,51.199219 c -2.02919,0 -3.66211,1.632909 -3.66211,3.662109 V 121.5293 c 0,2.0292 1.63292,3.66211 3.66211,3.66211 h 13.38671 l 1.43165,2.03711 h 34.56445 c 0.54919,0 1.64648,-2.03711 1.64648,-2.03711 h 41.79492 c 2.02921,0 3.66211,-1.63291 3.66211,-3.66211 V 54.861328 c 0,-2.0292 -1.6329,-3.662109 -3.66211,-3.662109 z m 58.89453,2.878906 h 37.07422 v 31.662109 h -37.07422 z m 15.96289,41.675781 a 9.4699869,9.4699869 0 0 1 9.4707,9.468754 9.4699869,9.4699869 0 0 1 -9.4707,9.4707 9.4699869,9.4699869 0 0 1 -9.46875,-9.4707 9.4699869,9.4699869 0 0 1 9.46875,-9.468754 z"
       style="fill:#ffd42a;fill-opacity:1;stroke:#ffd42a;stroke-width:0.48003784;stroke-miterlimit:4;stroke-dasharray:none;stroke-opacity:1"
       inkscape:connector-curvature="0" /><circle
       style="fill:#ffd42a;fill-opacity:1;stroke:#ffd42a;stroke-width:0.36756802;stroke-miterlimit:4;stroke-dasharray:none;stroke-opacity:1"
       id="circle5144"
       cx="363.08685"
       cy="105.22319"
       r="7.5458875" /><rect
       style="fill:#ffd42a;fill-opacity:1;stroke:#ffd42a;stroke-width:0.43674877;stroke-miterlimit:4;stroke-dasharray:none;stroke-opacity:1"
       id="rect5152"
       width="33.210709"
       height="28.362501"
       x="349.05548"
       y="55.728157" /><rect
       y="57.475117"
       x="351.10104"
       height="24.868576"
       width="29.119539"
       id="rect5154"
       style="fill:#ffffff;fill-opacity:1;stroke:#000000;stroke-width:0.38294643;stroke-miterlimit:4;stroke-dasharray:none;stroke-opacity:1" /><g
       transform="matrix(0,-1.0186405,1.0186405,0,272.4697,116.03293)"
       id="g5238"><rect
         style="fill:#454545;stroke-width:1.31305206"
         id="rect5206"
         height="9.752037"
         width="4.8753619"
         y="1.1631045"
         x="5.918344" /><polygon
         transform="matrix(1.313052,0,0,1.313052,-30.874674,-0.77102107)"
         style="fill:#454545"
         id="polygon5208"
         points="26.163,7.041 26.163,3.328 28.021,1.473 28.021,8.899 " /><polygon
         transform="matrix(1.313052,0,0,1.313052,-30.874674,-0.77102107)"
         style="fill:#454545"
         id="polygon5210"
         points="31.732,8.899 31.732,1.473 33.593,3.328 33.593,7.041 " /><rect
         style="fill:#b68b2d;stroke-width:1.31305206"
         id="rect5212"
         height="2.1901708"
         width="1.7227243"
         y="4.9394422"
         x="7.4966369" /><rect
         style="fill:#454545;stroke-width:1.31305206"
         id="rect5214"
         height="9.752037"
         width="4.8753619"
         y="1.1631045"
         x="15.374956" /><polygon
         transform="matrix(1.313052,0,0,1.313052,-30.874674,-0.77102107)"
         style="fill:#454545"
         id="polygon5216"
         points="33.363,7.041 33.363,3.328 35.223,1.473 35.223,8.899 " /><polygon
         transform="matrix(1.313052,0,0,1.313052,-30.874674,-0.77102107)"
         style="fill:#454545"
         id="polygon5218"
         points="38.934,8.899 38.934,1.473 40.792,3.328 40.792,7.041 " /><rect
         style="fill:#b68b2d;stroke-width:1.31305206"
         id="rect5220"
         height="2.1901708"
         width="1.7227243"
         y="4.9394422"
         x="16.948" /><rect
         style="fill:#454545;stroke-width:1.31305206"
         id="rect5222"
         height="9.752037"
         width="4.8753619"
         y="1.1631045"
         x="24.826303" /><polygon
         transform="matrix(1.313052,0,0,1.313052,-30.874674,-0.77102107)"
         style="fill:#454545"
         id="polygon5224"
         points="40.564,7.041 40.564,3.328 42.421,1.473 42.421,8.899 " /><polygon
         transform="matrix(1.313052,0,0,1.313052,-30.874674,-0.77102107)"
         style="fill:#454545"
         id="polygon5226"
         points="46.134,8.899 46.134,1.473 47.992,3.328 47.992,7.041 " /><rect
         style="fill:#b68b2d;stroke-width:1.31305206"
         id="rect5228"
         height="2.1901708"
         width="1.7227243"
         y="4.9394422"
         x="26.403276" /><rect
         style="fill:#454545;stroke-width:1.31305206"
         id="rect5230"
         height="9.752037"
         width="4.8753619"
         y="1.1631045"
         x="34.281601" /><polygon
         transform="matrix(1.313052,0,0,1.313052,-30.874674,-0.77102107)"
         style="fill:#454545"
         id="polygon5232"
         points="47.764,7.041 47.764,3.328 49.622,1.473 49.622,8.899 " /><polygon
         transform="matrix(1.313052,0,0,1.313052,-30.874674,-0.77102107)"
         style="fill:#454545"
         id="polygon5234"
         points="53.333,8.899 53.333,1.473 55.191,3.328 55.191,7.041 " /><rect
         style="fill:#b68b2d;stroke-width:1.31305206"
         id="rect5236"
         height="2.1901708"
         width="1.7227243"
         y="4.9394422"
         x="35.85463" /></g><rect
       transform="rotate(-90)"
       style="fill:#454545;stroke-width:1.33752799"
       id="rect5240"
       height="9.9338198"
       width="4.9662409"
       y="385.26285"
       x="-110.00427" /><polygon
       transform="matrix(0,-1.3375279,1.3375279,0,383.29267,147.48313)"
       style="fill:#454545"
       id="polygon5242"
       points="26.163,3.328 28.021,1.473 28.021,8.899 26.163,7.041 " /><polygon
       transform="matrix(0,-1.3375279,1.3375279,0,383.29267,147.48313)"
       style="fill:#454545"
       id="polygon5244"
       points="31.732,1.473 33.593,3.328 33.593,7.041 31.732,8.899 " /><rect
       transform="rotate(-90)"
       style="fill:#b68b2d;stroke-width:1.33752799"
       id="rect5246"
       height="2.2309966"
       width="1.7548368"
       y="389.10959"
       x="-108.39656" /><rect
       transform="rotate(-90)"
       style="fill:#454545;stroke-width:1.33752799"
       id="rect5248"
       height="9.9338198"
       width="4.9662409"
       y="385.26285"
       x="-100.37138" /><polygon
       transform="matrix(0,-1.3375279,1.3375279,0,383.29267,147.48313)"
       style="fill:#454545"
       id="polygon5250"
       points="33.363,3.328 35.223,1.473 35.223,8.899 33.363,7.041 " /><polygon
       transform="matrix(0,-1.3375279,1.3375279,0,383.29267,147.48313)"
       style="fill:#454545"
       id="polygon5252"
       points="38.934,1.473 40.792,3.328 40.792,7.041 38.934,8.899 " /><rect
       transform="rotate(-90)"
       style="fill:#b68b2d;stroke-width:1.33752799"
       id="rect5254"
       height="2.2309966"
       width="1.7548368"
       y="389.10959"
       x="-98.76902" /><rect
       transform="rotate(-90)"
       style="fill:#454545;stroke-width:1.33752799"
       id="rect5256"
       height="9.9338198"
       width="4.9662409"
       y="385.26285"
       x="-90.743858" /><polygon
       transform="matrix(0,-1.3375279,1.3375279,0,383.29267,147.48313)"
       style="fill:#454545"
       id="polygon5258"
       points="40.564,3.328 42.421,1.473 42.421,8.899 40.564,7.041 " /><polygon
       transform="matrix(0,-1.3375279,1.3375279,0,383.29267,147.48313)"
       style="fill:#454545"
       id="polygon5260"
       points="46.134,1.473 47.992,3.328 47.992,7.041 46.134,8.899 " /><rect
       transform="rotate(-90)"
       style="fill:#b68b2d;stroke-width:1.33752799"
       id="rect5262"
       height="2.2309966"
       width="1.7548368"
       y="389.10959"
       x="-89.137497" /><g
       id="g5650"><rect
         x="-81.112312"
         y="385.26285"
         width="4.9662409"
         height="9.9338198"
         id="rect5264"
         style="fill:#454545;stroke-width:1.33752799"
         transform="rotate(-90)" /><polygon
         points="47.764,3.328 49.622,1.473 49.622,8.899 47.764,7.041 "
         id="polygon5266"
         style="fill:#454545"
         transform="matrix(0,-1.3375279,1.3375279,0,383.29267,147.48313)" /><polygon
         points="53.333,1.473 55.191,3.328 55.191,7.041 53.333,8.899 "
         id="polygon5268"
         style="fill:#454545"
         transform="matrix(0,-1.3375279,1.3375279,0,383.29267,147.48313)" /><rect
         x="-79.509964"
         y="389.10959"
         width="1.7548368"
         height="2.2309966"
         id="rect5270"
         style="fill:#b68b2d;stroke-width:1.33752799"
         transform="rotate(-90)" /></g><g
       transform="translate(0,-9.6339363)"
       id="g5660"><rect
         transform="rotate(-90)"
         style="fill:#454545;stroke-width:1.33752799"
         id="rect5652"
         height="9.9338198"
         width="4.9662409"
         y="385.26285"
         x="-81.112312" /><polygon
         transform="matrix(0,-1.3375279,1.3375279,0,383.29267,147.48313)"
         style="fill:#454545"
         id="polygon5654"
         points="49.622,8.899 47.764,7.041 47.764,3.328 49.622,1.473 " /><polygon
         transform="matrix(0,-1.3375279,1.3375279,0,383.29267,147.48313)"
         style="fill:#454545"
         id="polygon5656"
         points="55.191,7.041 53.333,8.899 53.333,1.473 55.191,3.328 " /><rect
         transform="rotate(-90)"
         style="fill:#b68b2d;stroke-width:1.33752799"
         id="rect5658"
         height="2.2309966"
         width="1.7548368"
         y="389.10959"
         x="-79.509964" /></g><text
       id="text5675"
       y="111.24049"
       x="285.5658"
       style="font-style:normal;font-weight:normal;font-size:10.19165421px;line-height:6.36978388px;font-family:sans-serif;letter-spacing:0px;word-spacing:0px;fill:#000000;fill-opacity:1;stroke:none;stroke-width:0.25479135"
       xml:space="preserve"><tspan
         style="font-style:normal;font-variant:normal;font-weight:normal;font-stretch:normal;font-family:'Droid Sans Mono';-inkscape-font-specification:'Droid Sans Mono';stroke-width:0.25479135"
         y="111.24049"
         x="285.5658"
         id="tspan5673"
         sodipodi:role="line">Vin</tspan></text>
<text
       xml:space="preserve"
       style="font-style:normal;font-weight:normal;font-size:10.19165421px;line-height:6.36978388px;font-family:sans-serif;letter-spacing:0px;word-spacing:0px;fill:#000000;fill-opacity:1;stroke:none;stroke-width:0.25479135"
       x="285.5658"
       y="101.61151"
       id="text5679"><tspan
         sodipodi:role="line"
         id="tspan5677"
         x="285.5658"
         y="101.61151"
         style="font-style:normal;font-variant:normal;font-weight:normal;font-stretch:normal;font-family:'Droid Sans Mono';-inkscape-font-specification:'Droid Sans Mono';stroke-width:0.25479135">GND</tspan></text>
<text
       id="text5683"
       y="92.011513"
       x="285.5658"
       style="font-style:normal;font-weight:normal;font-size:10.19165421px;line-height:6.36978388px;font-family:sans-serif;letter-spacing:0px;word-spacing:0px;fill:#000000;fill-opacity:1;stroke:none;stroke-width:0.25479135"
       xml:space="preserve"><tspan
         style="font-style:normal;font-variant:normal;font-weight:normal;font-stretch:normal;font-family:'Droid Sans Mono';-inkscape-font-specification:'Droid Sans Mono';stroke-width:0.25479135"
         y="92.011513"
         x="285.5658"
         id="tspan5681"
         sodipodi:role="line">AOT</tspan></text>
<text
       xml:space="preserve"
       style="font-style:normal;font-weight:normal;font-size:10.19165421px;line-height:6.36978388px;font-family:sans-serif;letter-spacing:0px;word-spacing:0px;fill:#000000;fill-opacity:1;stroke:none;stroke-width:0.25479135"
       x="285.5658"
       y="82.411514"
       id="text5687"><tspan
         sodipodi:role="line"
         id="tspan5685"
         x="285.5658"
         y="82.411514"
         style="font-style:normal;font-variant:normal;font-weight:normal;font-stretch:normal;font-family:'Droid Sans Mono';-inkscape-font-specification:'Droid Sans Mono';stroke-width:0.25479135">PWM</tspan></text>
<text
       xml:space="preserve"
       style="font-style:normal;font-weight:normal;font-size:10.19165421px;line-height:6.36978388px;font-family:sans-serif;letter-spacing:0px;word-spacing:0px;fill:#000000;fill-opacity:1;stroke:none;stroke-width:0.25479135"
       x="372.06015"
       y="111.24049"
       id="text5691"><tspan
         sodipodi:role="line"
         id="tspan5689"
         x="372.06015"
         y="111.24049"
         style="font-style:normal;font-variant:normal;font-weight:normal;font-stretch:normal;font-family:'Droid Sans Mono';-inkscape-font-specification:'Droid Sans Mono';stroke-width:0.25479135">Vo</tspan></text>
<text
       id="text5695"
       y="101.61151"
       x="372.06015"
       style="font-style:normal;font-weight:normal;font-size:10.19165421px;line-height:6.36978388px;font-family:sans-serif;letter-spacing:0px;word-spacing:0px;fill:#000000;fill-opacity:1;stroke:none;stroke-width:0.25479135"
       xml:space="preserve"><tspan
         style="font-style:normal;font-variant:normal;font-weight:normal;font-stretch:normal;font-family:'Droid Sans Mono';-inkscape-font-specification:'Droid Sans Mono';stroke-width:0.25479135"
         y="101.61151"
         x="372.06015"
         id="tspan5693"
         sodipodi:role="line">Rx</tspan></text>
<text
       xml:space="preserve"
       style="font-style:normal;font-weight:normal;font-size:10.19165421px;line-height:6.36978388px;font-family:sans-serif;letter-spacing:0px;word-spacing:0px;fill:#000000;fill-opacity:1;stroke:none;stroke-width:0.25479135"
       x="372.06015"
       y="92.011513"
       id="text5699"><tspan
         sodipodi:role="line"
         id="tspan5697"
         x="372.06015"
         y="92.011513"
         style="font-style:normal;font-variant:normal;font-weight:normal;font-stretch:normal;font-family:'Droid Sans Mono';-inkscape-font-specification:'Droid Sans Mono';stroke-width:0.25479135">Tx</tspan></text>
<text
       id="text5703"
       y="82.411514"
       x="372.06015"
       style="font-style:normal;font-weight:normal;font-size:10.19165421px;line-height:6.36978388px;font-family:sans-serif;letter-spacing:0px;word-spacing:0px;fill:#000000;fill-opacity:1;stroke:none;stroke-width:0.25479135"
       xml:space="preserve"><tspan
         style="font-style:normal;font-variant:normal;font-weight:normal;font-stretch:normal;font-family:'Droid Sans Mono';-inkscape-font-specification:'Droid Sans Mono';stroke-width:0.25479135"
         y="82.411514"
         x="372.06015"
         id="tspan5701"
         sodipodi:role="line">SR</tspan></text>
<text
       xml:space="preserve"
       style="font-style:normal;font-weight:normal;font-size:10.19165421px;line-height:6.36978388px;font-family:sans-serif;letter-spacing:0px;word-spacing:0px;fill:#000000;fill-opacity:1;stroke:none;stroke-width:0.25479135"
       x="372.06015"
       y="72.811508"
       id="text5707"><tspan
         sodipodi:role="line"
         id="tspan5705"
         x="372.06015"
         y="72.811508"
         style="font-style:normal;font-variant:normal;font-weight:normal;font-stretch:normal;font-family:'Droid Sans Mono';-inkscape-font-specification:'Droid Sans Mono';stroke-width:0.25479135">Hd</tspan></text>
</g></svg>