<?xml version="1.0" encoding="UTF-8" standalone="no"?>
<!-- Generator: Adobe Illustrator 15.0.0, SVG Export Plug-In . SVG Version: 6.00 Build 0)  -->

<svg
   xmlns:dc="http://purl.org/dc/elements/1.1/"
   xmlns:cc="http://creativecommons.org/ns#"
   xmlns:rdf="http://www.w3.org/1999/02/22-rdf-syntax-ns#"
   xmlns:svg="http://www.w3.org/2000/svg"
   xmlns="http://www.w3.org/2000/svg"
   xmlns:sodipodi="http://sodipodi.sourceforge.net/DTD/sodipodi-0.dtd"
   xmlns:inkscape="http://www.inkscape.org/namespaces/inkscape"
   version="1.1"
   id="Layer_1"
   x="0px"
   y="0px"
   width="1.0421346in"
   height="0.77125376in"
   viewBox="0 0 75.033812 55.530229"
   enable-background="new 0 0 82 82"
   xml:space="preserve"
   sodipodi:docname="LP8_CO2_BB.svg"
   inkscape:version="0.92.2 (5c3e80d, 2017-08-06)"><metadata
     id="metadata65"><rdf:RDF><cc:Work
         rdf:about=""><dc:format>image/svg+xml</dc:format><dc:type
           rdf:resource="http://purl.org/dc/dcmitype/StillImage" /><dc:title></dc:title></cc:Work></rdf:RDF></metadata><defs
     id="defs63" /><sodipodi:namedview
     pagecolor="#ffffff"
     bordercolor="#666666"
     borderopacity="1"
     objecttolerance="10"
     gridtolerance="10"
     guidetolerance="10"
     inkscape:pageopacity="0"
     inkscape:pageshadow="2"
     inkscape:window-width="2560"
     inkscape:window-height="1377"
     id="namedview61"
     showgrid="false"
     inkscape:zoom="7.0005017"
     inkscape:cx="66.93191"
     inkscape:cy="9.5261041"
     inkscape:window-x="-8"
     inkscape:window-y="-8"
     inkscape:window-maximized="1"
     inkscape:current-layer="Layer_1"
     fit-margin-top="0"
     fit-margin-left="0"
     fit-margin-right="0"
     fit-margin-bottom="0" /><g
     id="g1341"><path
       id="rect5158"
       transform="matrix(0.75000121,0,0,0.75000121,0,-6.4935378e-5)"
       d="M 5.1933594 2.6230469 C 3.5768316 2.6230469 2.2734375 3.9204901 2.2734375 5.53125 L 2.2734375 12.203125 L -0.35742188 12.203125 L -0.35742188 12.568359 L -11.318359 12.568359 L -11.318359 61.734375 L -0.35742188 61.734375 L -0.35742188 61.785156 L 2.2734375 61.785156 L 2.2734375 67.900391 C 2.2734374 69.511149 3.5768316 70.808594 5.1933594 70.808594 L 93.222656 70.808594 C 94.839183 70.808594 96.140625 69.511149 96.140625 67.900391 L 96.140625 61.785156 L 99.470703 61.785156 L 99.470703 61.734375 L 111.04492 61.734375 L 111.04492 21.947266 L 99.470703 21.947266 L 99.470703 12.203125 L 96.140625 12.203125 L 96.140625 5.53125 C 96.140625 3.9204901 94.839183 2.6230469 93.222656 2.6230469 L 5.1933594 2.6230469 z "
       style="fill:#008000;fill-opacity:1;stroke:none;stroke-width:0.55817103;stroke-miterlimit:4;stroke-dasharray:none;stroke-opacity:1" /><g
       transform="matrix(0,-0.75955126,-0.75955126,0,83.636067,48.522282)"
       id="g5238"><rect
         style="fill:#454545;stroke-width:1.31305206"
         id="rect5206"
         height="9.752037"
         width="4.8753619"
         y="1.1631045"
         x="5.918344" /><polygon
         transform="matrix(1.313052,0,0,1.313052,-30.874674,-0.77102107)"
         style="fill:#454545"
         id="polygon5208"
         points="26.163,7.041 26.163,3.328 28.021,1.473 28.021,8.899 " /><polygon
         transform="matrix(1.313052,0,0,1.313052,-30.874674,-0.77102107)"
         style="fill:#454545"
         id="polygon5210"
         points="31.732,8.899 31.732,1.473 33.593,3.328 33.593,7.041 " /><rect
         style="fill:#b68b2d;stroke-width:1.31305206"
         id="rect5212"
         height="2.1901708"
         width="1.7227243"
         y="4.9394422"
         x="7.4966369" /><rect
         style="fill:#454545;stroke-width:1.31305206"
         id="rect5214"
         height="9.752037"
         width="4.8753619"
         y="1.1631045"
         x="15.374956" /><polygon
         transform="matrix(1.313052,0,0,1.313052,-30.874674,-0.77102107)"
         style="fill:#454545"
         id="polygon5216"
         points="33.363,7.041 33.363,3.328 35.223,1.473 35.223,8.899 " /><polygon
         transform="matrix(1.313052,0,0,1.313052,-30.874674,-0.77102107)"
         style="fill:#454545"
         id="polygon5218"
         points="38.934,8.899 38.934,1.473 40.792,3.328 40.792,7.041 " /><rect
         style="fill:#b68b2d;stroke-width:1.31305206"
         id="rect5220"
         height="2.1901708"
         width="1.7227243"
         y="4.9394422"
         x="16.948" /><rect
         style="fill:#454545;stroke-width:1.31305206"
         id="rect5222"
         height="9.752037"
         width="4.8753619"
         y="1.1631045"
         x="24.826303" /><polygon
         transform="matrix(1.313052,0,0,1.313052,-30.874674,-0.77102107)"
         style="fill:#454545"
         id="polygon5224"
         points="40.564,7.041 40.564,3.328 42.421,1.473 42.421,8.899 " /><polygon
         transform="matrix(1.313052,0,0,1.313052,-30.874674,-0.77102107)"
         style="fill:#454545"
         id="polygon5226"
         points="46.134,8.899 46.134,1.473 47.992,3.328 47.992,7.041 " /><rect
         style="fill:#b68b2d;stroke-width:1.31305206"
         id="rect5228"
         height="2.1901708"
         width="1.7227243"
         y="4.9394422"
         x="26.403276" /><rect
         style="fill:#454545;stroke-width:1.31305206"
         id="rect5230"
         height="9.752037"
         width="4.8753619"
         y="1.1631045"
         x="34.281601" /><polygon
         transform="matrix(1.313052,0,0,1.313052,-30.874674,-0.77102107)"
         style="fill:#454545"
         id="polygon5232"
         points="47.764,7.041 47.764,3.328 49.622,1.473 49.622,8.899 " /><polygon
         transform="matrix(1.313052,0,0,1.313052,-30.874674,-0.77102107)"
         style="fill:#454545"
         id="polygon5234"
         points="53.333,8.899 53.333,1.473 55.191,3.328 55.191,7.041 " /><rect
         style="fill:#b68b2d;stroke-width:1.31305206"
         id="rect5236"
         height="2.1901708"
         width="1.7227243"
         y="4.9394422"
         x="35.85463" /></g><rect
       transform="matrix(0,-1,-1,0,0,0)"
       style="fill:#454545;stroke-width:0.99733037"
       id="rect5240"
       height="7.4071722"
       width="3.7030871"
       y="0.46835625"
       x="-44.026997" /><polygon
       transform="matrix(0,-0.99733027,-0.99733027,0,1.000704,71.973184)"
       style="fill:#454545"
       id="polygon5242"
       points="26.163,3.328 28.021,1.473 28.021,8.899 26.163,7.041 " /><polygon
       transform="matrix(0,-0.99733027,-0.99733027,0,1.000704,71.973184)"
       style="fill:#454545"
       id="polygon5244"
       points="31.732,1.473 33.593,3.328 33.593,7.041 31.732,8.899 " /><rect
       transform="matrix(0,-1,-1,0,0,0)"
       style="fill:#b68b2d;stroke-width:0.99733037"
       id="rect5246"
       height="1.6635469"
       width="1.3084974"
       y="3.3366883"
       x="-42.828205" /><rect
       transform="matrix(0,-1,-1,0,0,0)"
       style="fill:#454545;stroke-width:0.99733037"
       id="rect5248"
       height="7.4071722"
       width="3.7030871"
       y="0.46835625"
       x="-36.844215" /><polygon
       transform="matrix(0,-0.99733027,-0.99733027,0,1.000704,71.973184)"
       style="fill:#454545"
       id="polygon5250"
       points="33.363,3.328 35.223,1.473 35.223,8.899 33.363,7.041 " /><polygon
       transform="matrix(0,-0.99733027,-0.99733027,0,1.000704,71.973184)"
       style="fill:#454545"
       id="polygon5252"
       points="38.934,1.473 40.792,3.328 40.792,7.041 38.934,8.899 " /><rect
       transform="matrix(0,-1,-1,0,0,0)"
       style="fill:#b68b2d;stroke-width:0.99733037"
       id="rect5254"
       height="1.6635469"
       width="1.3084974"
       y="3.3366883"
       x="-35.64941" /><rect
       transform="matrix(0,-1,-1,0,0,0)"
       style="fill:#454545;stroke-width:0.99733037"
       id="rect5256"
       height="7.4071722"
       width="3.7030871"
       y="0.46835625"
       x="-29.665436" /><polygon
       transform="matrix(0,-0.99733027,-0.99733027,0,1.000704,71.973184)"
       style="fill:#454545"
       id="polygon5258"
       points="40.564,3.328 42.421,1.473 42.421,8.899 40.564,7.041 " /><polygon
       transform="matrix(0,-0.99733027,-0.99733027,0,1.000704,71.973184)"
       style="fill:#454545"
       id="polygon5260"
       points="46.134,1.473 47.992,3.328 47.992,7.041 46.134,8.899 " /><rect
       transform="matrix(0,-1,-1,0,0,0)"
       style="fill:#b68b2d;stroke-width:0.99733037"
       id="rect5262"
       height="1.6635469"
       width="1.3084974"
       y="3.3366883"
       x="-28.467649" /><g
       transform="matrix(-0.74565194,0,0,0.74565194,286.80363,-37.997898)"
       id="g5650"><rect
         x="-81.112312"
         y="385.26285"
         width="4.9662409"
         height="9.9338198"
         id="rect5264"
         style="fill:#454545;stroke-width:1.33752799"
         transform="rotate(-90)" /><polygon
         points="47.764,3.328 49.622,1.473 49.622,8.899 47.764,7.041 "
         id="polygon5266"
         style="fill:#454545"
         transform="matrix(0,-1.3375279,1.3375279,0,383.29267,147.48313)" /><polygon
         points="53.333,1.473 55.191,3.328 55.191,7.041 53.333,8.899 "
         id="polygon5268"
         style="fill:#454545"
         transform="matrix(0,-1.3375279,1.3375279,0,383.29267,147.48313)" /><rect
         x="-79.509964"
         y="389.10959"
         width="1.7548368"
         height="2.2309966"
         id="rect5270"
         style="fill:#b68b2d;stroke-width:1.33752799"
         transform="rotate(-90)" /></g><g
       transform="matrix(-0.74565194,0,0,0.74565194,286.80363,-45.181461)"
       id="g5660"><rect
         transform="rotate(-90)"
         style="fill:#454545;stroke-width:1.33752799"
         id="rect5652"
         height="9.9338198"
         width="4.9662409"
         y="385.26285"
         x="-81.112312" /><polygon
         transform="matrix(0,-1.3375279,1.3375279,0,383.29267,147.48313)"
         style="fill:#454545"
         id="polygon5654"
         points="49.622,8.899 47.764,7.041 47.764,3.328 49.622,1.473 " /><polygon
         transform="matrix(0,-1.3375279,1.3375279,0,383.29267,147.48313)"
         style="fill:#454545"
         id="polygon5656"
         points="55.191,7.041 53.333,8.899 53.333,1.473 55.191,3.328 " /><rect
         transform="rotate(-90)"
         style="fill:#b68b2d;stroke-width:1.33752799"
         id="rect5658"
         height="2.2309966"
         width="1.7548368"
         y="389.10959"
         x="-79.509964" /></g><path
       sodipodi:nodetypes="csssssscc"
       inkscape:connector-curvature="0"
       id="rect1162"
       d="m 47.810837,15.587274 h 21.371161 c 1.208073,0 2.180637,0.972563 2.180637,2.180636 v 32.406363 c 0,1.208072 -0.972564,2.180636 -2.180637,2.180636 H 25.578221 c -1.208072,0 -2.180636,-0.972564 -2.180636,-2.180636 V 31.401097 Z"
       style="fill:#000000;fill-opacity:1;stroke:none;stroke-width:0.25634372;stroke-miterlimit:4;stroke-dasharray:none;stroke-opacity:1" /><path
       inkscape:connector-curvature="0"
       id="rect5140"
       d="m 2.4127952,0.17864641 c -1.51850299,0 -2.74025029,1.21739609 -2.74025029,2.73047309 V 9.1522938 H 1.7056813 V 4.1483794 c 0,-1.2080719 0.9765682,-2.181156 2.188966,-2.181156 H 69.91645 c 1.212398,0 2.188967,0.9730841 2.188967,2.181156 v 5.0039144 h 2.510914 V 2.9091195 c 0,-1.513077 -1.221761,-2.73047309 -2.74025,-2.73047309 z M -0.32745509,46.338877 v 6.28126 c 0,1.513078 1.2217473,2.730473 2.74025029,2.730473 H 71.876081 c 1.518489,0 2.74025,-1.217395 2.74025,-2.730473 v -6.28126 h -2.510914 v 4.586433 c 0,1.208071 -0.976569,2.181156 -2.188967,2.181156 H 3.8946473 c -1.2123978,0 -2.1889661,-0.973085 -2.188966,-2.181156 v -4.586433 z"
       style="fill:#cccccc;fill-opacity:1;stroke:none;stroke-width:0.35858142;stroke-miterlimit:4;stroke-dasharray:none;stroke-opacity:1" /><circle
       r="2.2632344"
       cy="29.108038"
       cx="5.0487533"
       id="path1201"
       style="fill:#ffd42a;fill-opacity:1;stroke:#ffd42a;stroke-width:0.25500041;stroke-miterlimit:4;stroke-dasharray:none;stroke-opacity:1" /><circle
       r="2.2230585"
       cy="32.040871"
       cx="14.945381"
       id="path1203"
       style="fill:#ffd42a;fill-opacity:1;stroke:#ffd42a;stroke-width:0.25500041;stroke-miterlimit:4;stroke-dasharray:none;stroke-opacity:1" /><circle
       r="2.215255"
       cy="47.588886"
       cx="16.324751"
       id="path1205"
       style="fill:#ffd42a;fill-opacity:1;stroke:#ffd42a;stroke-width:0.24382357;stroke-miterlimit:4;stroke-dasharray:none;stroke-opacity:1" /><circle
       r="1.5266788"
       cy="6.9176278"
       cx="45.130768"
       id="path1207"
       style="fill:#ffd42a;fill-opacity:1;stroke:#ffd42a;stroke-width:0.25500041;stroke-miterlimit:4;stroke-dasharray:none;stroke-opacity:1" /><circle
       style="fill:#ffd42a;fill-opacity:1;stroke:#ffd42a;stroke-width:0.25500041;stroke-miterlimit:4;stroke-dasharray:none;stroke-opacity:1"
       id="circle1209"
       cx="45.130768"
       cy="13.560019"
       r="1.5266788" /><rect
       y="5.5516524"
       x="34.952908"
       height="1.6070303"
       width="1.6605979"
       id="rect1213"
       style="fill:#b3b3b3;fill-opacity:1;stroke:none;stroke-width:0.25500041;stroke-miterlimit:4;stroke-dasharray:none;stroke-opacity:1" /><rect
       style="fill:#b3b3b3;fill-opacity:1;stroke:none;stroke-width:0.25500041;stroke-miterlimit:4;stroke-dasharray:none;stroke-opacity:1"
       id="rect1215"
       width="1.6605979"
       height="1.6070303"
       x="34.952908"
       y="8.4175234" /><rect
       y="6.9711962"
       x="38.970482"
       height="1.6070303"
       width="1.6605979"
       id="rect1217"
       style="fill:#b3b3b3;fill-opacity:1;stroke:none;stroke-width:0.25500041;stroke-miterlimit:4;stroke-dasharray:none;stroke-opacity:1" /><rect
       y="5.2302465"
       x="36.533157"
       height="5.2496324"
       width="2.6248162"
       id="rect1211"
       style="fill:#000000;fill-opacity:1;stroke:none;stroke-width:0.25500041;stroke-miterlimit:4;stroke-dasharray:none;stroke-opacity:1" /><circle
       r="1.5266788"
       cy="13.158261"
       cx="29.703278"
       id="circle1234"
       style="fill:#ffd42a;fill-opacity:1;stroke:#ffd42a;stroke-width:0.25500041;stroke-miterlimit:4;stroke-dasharray:none;stroke-opacity:1" /><g
       id="g1260"><rect
         style="fill:#b3b3b3;fill-opacity:1;stroke:none;stroke-width:0.25500041;stroke-miterlimit:4;stroke-dasharray:none;stroke-opacity:1"
         id="rect1238"
         width="2.8123031"
         height="4.4729009"
         x="49.710808"
         y="5.5784364" /><rect
         y="5.5784364"
         x="55.442551"
         height="4.4729009"
         width="2.8123031"
         id="rect1240"
         style="fill:#b3b3b3;fill-opacity:1;stroke:none;stroke-width:0.25500041;stroke-miterlimit:4;stroke-dasharray:none;stroke-opacity:1" /><rect
         y="-57.022793"
         x="5.8194919"
         height="6.2406344"
         width="3.9640081"
         id="rect1236"
         style="fill:#000000;fill-opacity:1;stroke:none;stroke-width:0.34167141;stroke-miterlimit:4;stroke-dasharray:none;stroke-opacity:1"
         transform="rotate(90)" /></g><rect
       transform="rotate(90)"
       style="fill:#b3b3b3;fill-opacity:1;stroke:none;stroke-width:0.32218614;stroke-miterlimit:4;stroke-dasharray:none;stroke-opacity:1"
       id="rect1262"
       width="3.5532691"
       height="5.6513896"
       x="13.988561"
       y="-26.060682" /><rect
       transform="rotate(90)"
       y="-26.060682"
       x="23.507092"
       height="5.6513896"
       width="3.5532691"
       id="rect1264"
       style="fill:#b3b3b3;fill-opacity:1;stroke:none;stroke-width:0.32218614;stroke-miterlimit:4;stroke-dasharray:none;stroke-opacity:1" /><rect
       y="-24.405548"
       x="-25.756113"
       height="7.8848734"
       width="5.0084176"
       id="rect1266"
       style="fill:#808080;fill-opacity:1;stroke:none;stroke-width:0.43169263;stroke-miterlimit:4;stroke-dasharray:none;stroke-opacity:1"
       transform="scale(-1)" /><text
       id="text1275"
       y="38.06723"
       x="47.246689"
       style="font-style:italic;font-variant:normal;font-weight:normal;font-stretch:normal;font-size:10.00001607px;line-height:1.25;font-family:sans-serif;-inkscape-font-specification:'sans-serif, Italic';font-variant-ligatures:normal;font-variant-caps:normal;font-variant-numeric:normal;font-feature-settings:normal;text-align:center;letter-spacing:0px;word-spacing:0px;writing-mode:lr;text-anchor:middle;fill:#ffffff;fill-opacity:1;stroke:none;stroke-width:0.75000119;"
       xml:space="preserve"><tspan
         style="font-style:italic;font-variant:normal;font-weight:normal;font-stretch:normal;font-size:10.00001607px;font-family:sans-serif;-inkscape-font-specification:'sans-serif, Italic';font-variant-ligatures:normal;font-variant-caps:normal;font-variant-numeric:normal;font-feature-settings:normal;text-align:center;writing-mode:lr;text-anchor:middle;fill:#ffffff;stroke-width:0.75000119;"
         y="38.06723"
         x="47.246689"
         id="tspan1273"
         sodipodi:role="line">SenseAir</tspan><tspan
         id="tspan1277"
         style="font-style:italic;font-variant:normal;font-weight:normal;font-stretch:normal;font-size:10.00001607px;font-family:sans-serif;-inkscape-font-specification:'sans-serif, Italic';font-variant-ligatures:normal;font-variant-caps:normal;font-variant-numeric:normal;font-feature-settings:normal;text-align:center;writing-mode:lr;text-anchor:middle;fill:#ffffff;stroke-width:0.75000119;"
         y="50.567249"
         x="47.246689"
         sodipodi:role="line">LP8</tspan></text>
</g></svg>