<?xml version="1.0" encoding="UTF-8" standalone="no"?>
<!-- Generator: Adobe Illustrator 15.0.0, SVG Export Plug-In . SVG Version: 6.00 Build 0)  -->

<svg
   xmlns:dc="http://purl.org/dc/elements/1.1/"
   xmlns:cc="http://creativecommons.org/ns#"
   xmlns:rdf="http://www.w3.org/1999/02/22-rdf-syntax-ns#"
   xmlns:svg="http://www.w3.org/2000/svg"
   xmlns="http://www.w3.org/2000/svg"
   xmlns:sodipodi="http://sodipodi.sourceforge.net/DTD/sodipodi-0.dtd"
   xmlns:inkscape="http://www.inkscape.org/namespaces/inkscape"
   version="1.1"
   id="Layer_1"
   x="0px"
   y="0px"
   width="116.37234"
   height="70.241821"
   viewBox="0 0 116.37234 70.241821"
   enable-background="new 0 0 82 82"
   xml:space="preserve"
   sodipodi:docname="LP8_CO2_PCB_Fritzing.svg"
   inkscape:version="0.92.2 (5c3e80d, 2017-08-06)"><metadata
     id="metadata65"><rdf:RDF><cc:Work
         rdf:about=""><dc:format>image/svg+xml</dc:format><dc:type
           rdf:resource="http://purl.org/dc/dcmitype/StillImage" /><dc:title></dc:title></cc:Work></rdf:RDF></metadata><defs
     id="defs63" /><sodipodi:namedview
     pagecolor="#ffffff"
     bordercolor="#666666"
     borderopacity="1"
     objecttolerance="10"
     gridtolerance="10"
     guidetolerance="10"
     inkscape:pageopacity="0"
     inkscape:pageshadow="2"
     inkscape:window-width="1920"
     inkscape:window-height="1017"
     id="namedview61"
     showgrid="false"
     inkscape:zoom="6.5780353"
     inkscape:cx="55.064099"
     inkscape:cy="20.649731"
     inkscape:window-x="2552"
     inkscape:window-y="355"
     inkscape:window-maximized="1"
     inkscape:current-layer="Layer_1"
     fit-margin-top="0"
     fit-margin-left="0"
     fit-margin-right="0"
     fit-margin-bottom="0" /><g
     id="silkscreen"
     transform="matrix(0.9397881,0,0,0.9397881,-8.9625177e-6,-9.3978811e-7)"><rect
       transform="scale(1,-1)"
       style="fill:none;fill-opacity:1;stroke:#373737;stroke-width:0.75;stroke-miterlimit:4;stroke-dasharray:none;stroke-opacity:1"
       id="rect5158"
       width="11.302933"
       height="49.453926"
       x="112.15036"
       y="-61.966049" /><rect
       transform="scale(1,-1)"
       y="-52.532047"
       x="0.37500954"
       height="40.019909"
       width="11.635372"
       id="rect5156"
       style="fill:none;fill-opacity:1;stroke:#373737;stroke-width:0.75;stroke-miterlimit:4;stroke-dasharray:none;stroke-opacity:1" /><path
       sodipodi:nodetypes="sssccssss"
       id="rect5140"
       d="m 15.662116,74.367192 c -2.02919,0 -3.66211,-1.632909 -3.66211,-3.662109 V 4.037111 c 0,-2.0292 1.63292,-3.66211 3.66211,-3.66211 h 92.824204 c 2.02921,0 3.66211,1.63291 3.66211,3.66211 v 66.667972 c 0,2.0292 -1.6329,3.662109 -3.66211,3.662109 z"
       style="fill:none;fill-opacity:1;stroke:#373737;stroke-width:0.75;stroke-miterlimit:4;stroke-dasharray:none;stroke-opacity:1"
       inkscape:connector-curvature="0" /><text
       transform="rotate(-60)"
       id="text5675"
       y="6.2059097"
       x="-24.111496"
       style="font-style:normal;font-variant:normal;font-weight:normal;font-stretch:normal;font-size:4.4000001px;line-height:6.36978388px;font-family:OCRA;-inkscape-font-specification:'OCRA, Normal';font-variant-ligatures:normal;font-variant-caps:normal;font-variant-numeric:normal;font-feature-settings:normal;text-align:start;letter-spacing:0px;word-spacing:0px;writing-mode:lr-tb;text-anchor:start;fill:#000000;fill-opacity:1;stroke:none;stroke-width:0.25479135"
       xml:space="preserve"><tspan
         y="6.2059097"
         x="-24.111496"
         id="tspan905"
         sodipodi:role="line">Vcap</tspan></text>
<text
       transform="rotate(-60)"
       xml:space="preserve"
       style="font-style:normal;font-variant:normal;font-weight:normal;font-stretch:normal;font-size:4.4000001px;line-height:6.36978388px;font-family:OCRA;-inkscape-font-specification:OCRA;letter-spacing:0px;word-spacing:0px;fill:#000000;fill-opacity:1;stroke:none;stroke-width:0.25479135"
       x="-31.664068"
       y="11.080102"
       id="text5679"><tspan
         sodipodi:role="line"
         id="tspan5677"
         x="-31.664068"
         y="11.080102"
         style="font-style:normal;font-variant:normal;font-weight:normal;font-stretch:normal;font-size:4.4000001px;font-family:OCRA;-inkscape-font-specification:OCRA;stroke-width:0.25479135">GND</tspan></text>
<text
       transform="rotate(-60)"
       id="text5683"
       y="15.885827"
       x="-39.981209"
       style="font-style:normal;font-variant:normal;font-weight:normal;font-stretch:normal;font-size:4.4000001px;line-height:6.36978388px;font-family:OCRA;-inkscape-font-specification:'OCRA, Normal';font-variant-ligatures:normal;font-variant-caps:normal;font-variant-numeric:normal;font-feature-settings:normal;text-align:start;letter-spacing:0px;word-spacing:0px;writing-mode:lr-tb;text-anchor:start;fill:#000000;fill-opacity:1;stroke:none;stroke-width:0.25479135"
       xml:space="preserve"><tspan
         y="15.885827"
         x="-39.981209"
         id="tspan907"
         sodipodi:role="line">PWM</tspan></text>
<text
       transform="rotate(-60)"
       xml:space="preserve"
       style="font-style:normal;font-variant:normal;font-weight:normal;font-stretch:normal;font-size:4.4000001px;line-height:6.36978388px;font-family:OCRA;-inkscape-font-specification:'OCRA, Normal';font-variant-ligatures:normal;font-variant-caps:normal;font-variant-numeric:normal;font-feature-settings:normal;text-align:start;letter-spacing:0px;word-spacing:0px;writing-mode:lr-tb;text-anchor:start;fill:#000000;fill-opacity:1;stroke:none;stroke-width:0.25479135"
       x="-48.291779"
       y="20.680122"
       id="text5687"><tspan
         y="20.680122"
         x="-48.291779"
         id="tspan909"
         sodipodi:role="line">RST</tspan></text>
<text
       xml:space="preserve"
       style="font-style:normal;font-variant:normal;font-weight:normal;font-stretch:normal;font-size:4.66666651px;line-height:6.36978388px;font-family:OCRA;-inkscape-font-specification:'OCRA, Normal';font-variant-ligatures:normal;font-variant-caps:normal;font-variant-numeric:normal;font-feature-settings:normal;text-align:start;letter-spacing:0px;word-spacing:0px;writing-mode:lr-tb;text-anchor:start;fill:#000000;fill-opacity:1;stroke:none;stroke-width:0.25479135"
       x="124.47266"
       y="38.873051"
       id="text5699"><tspan
         y="38.873051"
         x="124.47266"
         id="tspan919"
         sodipodi:role="line">Rx</tspan></text>
<text
       id="text5703"
       y="48.473049"
       x="124.47266"
       style="font-style:normal;font-variant:normal;font-weight:normal;font-stretch:normal;font-size:4.66666651px;line-height:6.36978388px;font-family:OCRA;-inkscape-font-specification:'OCRA, Normal';font-variant-ligatures:normal;font-variant-caps:normal;font-variant-numeric:normal;font-feature-settings:normal;text-align:start;letter-spacing:0px;word-spacing:0px;writing-mode:lr-tb;text-anchor:start;fill:#000000;fill-opacity:1;stroke:none;stroke-width:0.25479135"
       xml:space="preserve"><tspan
         y="48.473049"
         x="124.47266"
         id="tspan921"
         sodipodi:role="line">Tx</tspan></text>
<path
       sodipodi:nodetypes="sccssssss"
       inkscape:connector-curvature="0"
       id="rect927"
       d="M 20.998846,51.959 H 48.538988 L 80.216444,30.535707 V 7.184804 c 0,-2.77 -2.23,-5 -5,-5 H 20.998846 c -2.77,0 -5,2.23 -5,5 V 46.959 c 0,2.77 2.23,5 5,5 z"
       style="fill:none;stroke:#373737;stroke-width:0.75;stroke-miterlimit:4;stroke-dasharray:none;stroke-opacity:1" /><text
       id="text929"
       y="28.779551"
       x="124.47266"
       style="font-style:normal;font-variant:normal;font-weight:normal;font-stretch:normal;font-size:4.66666651px;line-height:6.36978388px;font-family:OCRA;-inkscape-font-specification:'OCRA, Normal';font-variant-ligatures:normal;font-variant-caps:normal;font-variant-numeric:normal;font-feature-settings:normal;text-align:start;letter-spacing:0px;word-spacing:0px;writing-mode:lr-tb;text-anchor:start;fill:#000000;fill-opacity:1;stroke:none;stroke-width:0.25479135"
       xml:space="preserve"><tspan
         y="28.779551"
         x="124.47266"
         id="tspan931"
         sodipodi:role="line">EN_VBB</tspan></text>
<text
       id="text935"
       y="19.650887"
       x="124.47266"
       style="font-style:normal;font-variant:normal;font-weight:normal;font-stretch:normal;font-size:4.66666651px;line-height:6.36978388px;font-family:OCRA;-inkscape-font-specification:'OCRA, Normal';font-variant-ligatures:normal;font-variant-caps:normal;font-variant-numeric:normal;font-feature-settings:normal;text-align:start;letter-spacing:0px;word-spacing:0px;writing-mode:lr-tb;text-anchor:start;fill:#000000;fill-opacity:1;stroke:none;stroke-width:0.25479135"
       xml:space="preserve"><tspan
         y="19.650887"
         x="124.47266"
         id="tspan937"
         sodipodi:role="line">VBB</tspan></text>
<text
       xml:space="preserve"
       style="font-style:normal;font-variant:normal;font-weight:normal;font-stretch:normal;font-size:4.66666651px;line-height:6.36978388px;font-family:OCRA;-inkscape-font-specification:'OCRA, Normal';font-variant-ligatures:normal;font-variant-caps:normal;font-variant-numeric:normal;font-feature-settings:normal;text-align:start;letter-spacing:0px;word-spacing:0px;writing-mode:lr-tb;text-anchor:start;fill:#000000;fill-opacity:1;stroke:none;stroke-width:0.25479135"
       x="124.47266"
       y="58.050888"
       id="text941"><tspan
         y="58.050888"
         x="124.47266"
         id="tspan943"
         sodipodi:role="line">RDY</tspan></text>
<g
       id="text950"
       style="font-style:italic;font-variant:normal;font-weight:normal;font-stretch:normal;font-size:13.33333302px;line-height:1.25;font-family:sans-serif;-inkscape-font-specification:'sans-serif, Italic';font-variant-ligatures:normal;font-variant-caps:normal;font-variant-numeric:normal;font-feature-settings:normal;text-align:center;letter-spacing:0px;word-spacing:0px;writing-mode:lr-tb;text-anchor:middle;fill:#373737;fill-opacity:1;stroke:none"
       transform="rotate(90,-0.367609,-1.632391)"
       aria-label="SenseAir LP8"><path
         style="fill:#373737;fill-opacity:1"
         inkscape:connector-curvature="0"
         id="path954"
         d="m 15.369375,-109.11219 -0.253906,1.28255 q -0.657552,-0.35156 -1.308594,-0.52734 -0.644531,-0.1823 -1.25,-0.1823 -1.178385,0 -1.875,0.51433 -0.6966144,0.51432 -0.6966144,1.36718 0,0.46875 0.2539064,0.72266 0.260417,0.2474 1.328125,0.53385 l 0.78776,0.19532 q 1.334636,0.34505 1.855469,0.8789 0.520833,0.52735 0.520833,1.48438 0,1.47135 -1.158854,2.39583 -1.152344,0.924481 -3.040364,0.924481 -0.7747399,0 -1.5559899,-0.15625 -0.78125,-0.14974 -1.5690104,-0.462241 l 0.2669271,-1.35417 q 0.7226562,0.44922 1.4453124,0.67709 0.7291667,0.22786 1.4518228,0.22786 1.230469,0 1.972656,-0.54687 0.742188,-0.54688 0.742188,-1.42578 0,-0.58594 -0.299479,-0.88542 -0.292969,-0.30599 -1.269532,-0.55339 l -0.78776,-0.20182 q -1.3476562,-0.35156 -1.8424478,-0.80729 -0.4882813,-0.46224 -0.4882813,-1.28906 0,-1.45183 1.1132813,-2.3763 1.1197918,-0.93099 2.9101558,-0.93099 0.696615,0 1.380209,0.12369 0.683593,0.1237 1.367187,0.3711 z" /><path
         style="fill:#373737;fill-opacity:1"
         inkscape:connector-curvature="0"
         id="path956"
         d="m 22.205312,-104.00803 q 0.01953,-0.10416 0.02604,-0.21484 0.01302,-0.11068 0.01302,-0.22135 0,-0.79427 -0.46875,-1.25651 -0.46224,-0.46224 -1.263021,-0.46224 -0.891927,0 -1.575521,0.5664 -0.683594,0.5599 -1.035156,1.59505 z m 1.041667,0.9375 h -5.572917 q -0.03906,0.2474 -0.05208,0.39063 -0.01302,0.14323 -0.01302,0.24739 0,0.90495 0.553385,1.39974 0.559896,0.4948 1.575521,0.4948 0.78125,0 1.477865,-0.17579 0.696614,-0.17578 1.295573,-0.51432 l -0.227865,1.1849 q -0.644531,0.260414 -1.334635,0.390623 -0.683594,0.130208 -1.39323,0.130208 -1.516927,0 -2.337239,-0.722661 -0.813802,-0.72916 -0.813802,-2.0638 0,-1.13932 0.403646,-2.11588 0.410156,-0.98308 1.197916,-1.7513 0.507813,-0.48178 1.204427,-0.74219 0.703125,-0.26042 1.490886,-0.26042 1.236979,0 1.966146,0.74219 0.735677,0.74219 0.735677,1.99219 0,0.29948 -0.03906,0.64453 -0.03906,0.33854 -0.117187,0.72916 z" /><path
         style="fill:#373737;fill-opacity:1"
         inkscape:connector-curvature="0"
         id="path958"
         d="m 31.424062,-104.11219 -0.852865,4.401039 H 29.36677 l 0.852865,-4.355469 q 0.05859,-0.30599 0.09115,-0.54036 0.03255,-0.23438 0.03255,-0.3711 0,-0.54687 -0.345052,-0.85286 -0.345052,-0.30599 -0.963542,-0.30599 -0.963542,0 -1.660156,0.64453 -0.696615,0.63802 -0.911458,1.73828 l -0.800782,4.042969 h -1.197916 l 1.41276,-7.291669 h 1.197917 l -0.240886,1.14584 q 0.501302,-0.63151 1.204427,-0.97657 0.703125,-0.34505 1.477865,-0.34505 0.963542,0 1.490885,0.52083 0.533854,0.52084 0.533854,1.46485 0,0.23437 -0.03255,0.5013 -0.02604,0.26693 -0.08464,0.57943 z" /><path
         style="fill:#373737;fill-opacity:1"
         inkscape:connector-curvature="0"
         id="path960"
         d="m 39.125884,-106.78797 -0.227864,1.13281 q -0.475261,-0.26042 -1.002604,-0.39063 -0.527344,-0.1302 -1.08724,-0.1302 -0.94401,0 -1.490885,0.32552 -0.540365,0.31901 -0.540365,0.87239 0,0.64453 1.263021,0.98959 0.09766,0.026 0.143229,0.0391 l 0.384115,0.11719 q 1.197916,0.33203 1.595052,0.69661 0.403645,0.36458 0.403645,0.99609 0,1.15886 -0.924479,1.88802 -0.917968,0.729171 -2.408854,0.729171 -0.579427,0 -1.217448,-0.110677 -0.638021,-0.110677 -1.40625,-0.345052 l 0.234375,-1.236982 q 0.657552,0.33854 1.295573,0.51433 0.638021,0.17578 1.223959,0.17578 0.878906,0 1.425781,-0.37761 0.553385,-0.3776 0.553385,-0.95703 0,-0.625 -1.445312,-1.00911 l -0.123698,-0.0326 -0.410156,-0.10416 q -0.911459,-0.24089 -1.334636,-0.63151 -0.423177,-0.39714 -0.423177,-1.00912 0,-1.16536 0.872396,-1.84896 0.878906,-0.68359 2.382812,-0.68359 0.592448,0 1.152344,0.0977 0.566406,0.0977 1.113281,0.29297 z" /><path
         style="fill:#373737;fill-opacity:1"
         inkscape:connector-curvature="0"
         id="path962"
         d="m 45.825103,-104.00803 q 0.01953,-0.10416 0.02604,-0.21484 0.01302,-0.11068 0.01302,-0.22135 0,-0.79427 -0.46875,-1.25651 -0.46224,-0.46224 -1.263021,-0.46224 -0.891927,0 -1.575521,0.5664 -0.683594,0.5599 -1.035156,1.59505 z m 1.041667,0.9375 h -5.572917 q -0.03906,0.2474 -0.05208,0.39063 -0.01302,0.14323 -0.01302,0.24739 0,0.90495 0.553385,1.39974 0.559896,0.4948 1.575521,0.4948 0.78125,0 1.477865,-0.17579 0.696614,-0.17578 1.295573,-0.51432 l -0.227865,1.1849 q -0.644531,0.260414 -1.334635,0.390623 -0.683594,0.130208 -1.393229,0.130208 -1.516928,0 -2.33724,-0.722661 -0.813802,-0.72916 -0.813802,-2.0638 0,-1.13932 0.403646,-2.11588 0.410156,-0.98308 1.197916,-1.7513 0.507813,-0.48178 1.204427,-0.74219 0.703125,-0.26042 1.490886,-0.26042 1.236979,0 1.966146,0.74219 0.735677,0.74219 0.735677,1.99219 0,0.29948 -0.03906,0.64453 -0.03906,0.33854 -0.117187,0.72916 z" /><path
         style="fill:#373737;fill-opacity:1"
         inkscape:connector-curvature="0"
         id="path964"
         d="m 52.524322,-109.4312 h 1.490885 l 1.803386,9.720049 h -1.373698 l -0.403646,-2.493489 h -4.375 l -1.373698,2.493489 h -1.386719 z m 0.47526,1.29557 -2.727864,4.83724 h 3.567708 z" /><path
         style="fill:#373737;fill-opacity:1"
         inkscape:connector-curvature="0"
         id="path966"
         d="m 59.171456,-109.84136 h 1.197917 l -0.292969,1.51693 h -1.197917 z m -0.546875,2.83854 h 1.197917 l -1.425782,7.291669 H 57.1988 Z" /><path
         style="fill:#373737;fill-opacity:1"
         inkscape:connector-curvature="0"
         id="path968"
         d="m 66.371978,-105.89605 q -0.182292,-0.0977 -0.416667,-0.14974 -0.234375,-0.0521 -0.501302,-0.0521 -0.957031,0 -1.673177,0.72917 -0.716146,0.72265 -0.950521,1.9401 l -0.735677,3.717449 h -1.197916 l 1.425781,-7.291669 h 1.197917 l -0.227865,1.13281 q 0.47526,-0.63151 1.132813,-0.97005 0.664062,-0.33854 1.41276,-0.33854 0.195312,0 0.384114,0.026 0.188803,0.0195 0.377605,0.0716 z" /><path
         style="fill:#373737;fill-opacity:1"
         inkscape:connector-curvature="0"
         id="path970"
         d="m 26.886302,-92.764537 h 1.321614 l -1.666666,8.626302 h 4.733073 l -0.214844,1.09375 h -6.054687 z" /><path
         style="fill:#373737;fill-opacity:1"
         inkscape:connector-curvature="0"
         id="path972"
         d="m 34.321198,-92.764537 h 3.040364 q 1.328125,0 2.02474,0.61849 0.696614,0.618489 0.696614,1.809896 0,1.601562 -1.028645,2.493489 -1.028646,0.891927 -2.890625,0.891927 H 34.51 l -0.761719,3.90625 h -1.321614 z m 1.106771,1.080729 -0.703125,3.652344 h 1.653645 q 1.119792,0 1.71875,-0.572917 0.598959,-0.572916 0.598959,-1.640625 0,-0.683593 -0.410157,-1.061197 -0.403645,-0.377605 -1.139322,-0.377605 z" /><path
         style="fill:#373737;fill-opacity:1"
         inkscape:connector-curvature="0"
         id="path974"
         d="m 46.046458,-85.993704 q 0,-0.735677 -0.514323,-1.197916 -0.514323,-0.46875 -1.347656,-0.46875 -1.015625,0 -1.679688,0.611979 -0.657552,0.605469 -0.657552,1.536458 0,0.742188 0.501302,1.178386 0.507813,0.436198 1.367188,0.436198 1.022135,0 1.673177,-0.592448 0.657552,-0.592448 0.657552,-1.503907 z m 0.670573,-4.531249 q 0,-0.61849 -0.455729,-0.996094 -0.455729,-0.377604 -1.210938,-0.377604 -0.891927,0 -1.471354,0.501302 -0.572916,0.501302 -0.572916,1.25651 0,0.651042 0.449218,1.048177 0.455729,0.397136 1.204427,0.397136 0.898438,0 1.477865,-0.514323 0.579427,-0.520834 0.579427,-1.315104 z m -0.891927,2.363281 q 0.735677,0.279948 1.126302,0.846354 0.390625,0.566406 0.390625,1.367187 0,1.347657 -1.041667,2.220052 -1.041666,0.872396 -2.688802,0.872396 -1.399739,0 -2.226562,-0.683594 -0.826823,-0.690104 -0.826823,-1.835937 0,-1.041667 0.709635,-1.848958 0.709636,-0.813802 1.848959,-1.035156 -0.683594,-0.234375 -1.041667,-0.722657 -0.358073,-0.494791 -0.358073,-1.197916 0,-1.178386 0.976563,-1.966146 0.983072,-0.794271 2.486979,-0.794271 1.25651,0 2.04427,0.644531 0.794271,0.638021 0.794271,1.627604 0,0.859375 -0.592448,1.536459 -0.585937,0.670573 -1.601562,0.970052 z" /></g><path
       inkscape:connector-curvature="0"
       id="path1392"
       d="m -5.2506559,42.263579 -4.2697094,7.395354 z"
       style="fill:none;stroke:#000000;stroke-width:0.5;stroke-linecap:butt;stroke-linejoin:miter;stroke-miterlimit:4;stroke-dasharray:none;stroke-opacity:1" /><path
       inkscape:transform-center-x="0.71696633"
       d="M 15.085387,20.489303 10.78359,18.005659 15.085388,15.522015 Z"
       inkscape:randomized="0"
       inkscape:rounded="0"
       inkscape:flatsided="true"
       sodipodi:arg2="2.0943951"
       sodipodi:arg1="1.0471976"
       sodipodi:r2="1.4339327"
       sodipodi:r1="2.8678653"
       sodipodi:cy="18.005659"
       sodipodi:cx="13.651455"
       sodipodi:sides="3"
       id="path1400"
       style="fill:none;fill-opacity:1;stroke:#373737;stroke-width:0.5;stroke-miterlimit:4;stroke-dasharray:none;stroke-opacity:1"
       sodipodi:type="star" /><path
       transform="scale(-1,1)"
       sodipodi:type="star"
       style="fill:none;fill-opacity:1;stroke:#373737;stroke-width:0.5;stroke-miterlimit:4;stroke-dasharray:none;stroke-opacity:1"
       id="path1402"
       sodipodi:sides="3"
       sodipodi:cx="-108.3209"
       sodipodi:cy="18.005659"
       sodipodi:r1="2.8678653"
       sodipodi:r2="1.4339327"
       sodipodi:arg1="1.0471976"
       sodipodi:arg2="2.0943951"
       inkscape:flatsided="true"
       inkscape:rounded="0"
       inkscape:randomized="0"
       d="m -106.88697,20.489303 -4.3018,-2.483644 4.3018,-2.483644 z"
       inkscape:transform-center-x="-0.71696178" /></g><g
     id="copper1"><g
       transform="matrix(0.9397881,0,0,0.9397881,-8.9625177e-6,-9.3978811e-7)"
       id="copper0"><path
         d="m 6.038175,44.349067 c -1.444779,0 -2.616005,1.171223 -2.616005,2.615994 0,1.444779 1.171226,2.616 2.616005,2.616 1.444781,0 2.616006,-1.171221 2.616006,-2.616 0,-1.444771 -1.171225,-2.615994 -2.616006,-2.615994 z"
         style="fill:none;stroke:#ffbf00;stroke-width:1.87200093;stroke-linecap:butt;stroke-linejoin:miter;stroke-miterlimit:4;stroke-dasharray:none;stroke-opacity:1"
         id="path3278"
         inkscape:connector-curvature="0" /><path
         inkscape:connector-curvature="0"
         id="path3280"
         style="fill:none;stroke:#ffbf00;stroke-width:1.87200093;stroke-linecap:butt;stroke-linejoin:miter;stroke-miterlimit:4;stroke-dasharray:none;stroke-opacity:1"
         d="m 6.038176,34.749066 c -1.44478,0 -2.616005,1.171224 -2.616005,2.615994 0,1.44478 1.171225,2.616 2.616005,2.616 1.44478,0 2.616006,-1.17122 2.616006,-2.616 0,-1.44477 -1.171226,-2.615994 -2.616006,-2.615994 z" /><path
         inkscape:connector-curvature="0"
         id="path3284"
         style="fill:none;stroke:#ffbf00;stroke-width:1.87200093;stroke-linecap:butt;stroke-linejoin:miter;stroke-miterlimit:4;stroke-dasharray:none;stroke-opacity:1"
         d="m 6.038176,15.549067 c -1.44478,0 -2.616005,1.171224 -2.616005,2.615994 0,1.44478 1.171225,2.616 2.616005,2.616 1.44478,0 2.616006,-1.17122 2.616006,-2.616 0,-1.44477 -1.171226,-2.615994 -2.616006,-2.615994 z" /><path
         d="m 120.19639,56.52289 c 0,-1.44478 -1.17123,-2.616005 -2.616,-2.616005 -1.44478,0 -2.616,1.171225 -2.616,2.616005 0,1.44478 1.17122,2.616006 2.616,2.616006 1.44477,0 2.616,-1.171226 2.616,-2.616006 z"
         style="fill:none;stroke:#ffbf00;stroke-width:1.87200093;stroke-linecap:butt;stroke-linejoin:miter;stroke-miterlimit:4;stroke-dasharray:none;stroke-opacity:1"
         id="path3286"
         inkscape:connector-curvature="0" /><path
         inkscape:connector-curvature="0"
         id="path3288"
         style="fill:none;stroke:#ffbf00;stroke-width:1.87200093;stroke-linecap:butt;stroke-linejoin:miter;stroke-miterlimit:4;stroke-dasharray:none;stroke-opacity:1"
         d="m 120.19639,46.92289 c 0,-1.44478 -1.17123,-2.616005 -2.616,-2.616005 -1.44478,0 -2.616,1.171225 -2.616,2.616005 0,1.44478 1.17122,2.616006 2.616,2.616006 1.44477,0 2.616,-1.171226 2.616,-2.616006 z" /><path
         d="m 120.19639,37.32289 c 0,-1.44478 -1.17123,-2.616005 -2.616,-2.616005 -1.44478,0 -2.616,1.171225 -2.616,2.616005 0,1.44478 1.17122,2.616006 2.616,2.616006 1.44477,0 2.616,-1.171226 2.616,-2.616006 z"
         style="fill:none;stroke:#ffbf00;stroke-width:1.87200093;stroke-linecap:butt;stroke-linejoin:miter;stroke-miterlimit:4;stroke-dasharray:none;stroke-opacity:1"
         id="path3290"
         inkscape:connector-curvature="0" /><path
         inkscape:connector-curvature="0"
         id="path3292"
         style="fill:none;stroke:#ffbf00;stroke-width:1.87200093;stroke-linecap:butt;stroke-linejoin:miter;stroke-miterlimit:4;stroke-dasharray:none;stroke-opacity:1"
         d="m 120.19639,27.72289 c 0,-1.44478 -1.17123,-2.616005 -2.616,-2.616005 -1.44478,0 -2.616,1.171225 -2.616,2.616005 0,1.44478 1.17122,2.616006 2.616,2.616006 1.44477,0 2.616,-1.171226 2.616,-2.616006 z" /><path
         d="m 120.19639,18.122888 c 0,-1.44478 -1.17123,-2.616 -2.616,-2.616 -1.44478,0 -2.616,1.17122 -2.616,2.616 0,1.444782 1.17122,2.616008 2.616,2.616008 1.44477,0 2.616,-1.171226 2.616,-2.616008 z"
         style="fill:none;stroke:#ffbf00;stroke-width:1.87200093;stroke-linecap:butt;stroke-linejoin:miter;stroke-miterlimit:4;stroke-dasharray:none;stroke-opacity:1"
         id="path3294"
         inkscape:connector-curvature="0" /><path
         sodipodi:nodetypes="cccccsssss"
         inkscape:connector-curvature="0"
         id="path3294-3"
         d="m 2.438811,24.168565 v 7.2195 h 7.2194949 v -7.2195 z m 3.609167,1.870139 c 0.964679,0 1.724812,0.763242 1.724812,1.727933 0,0.964692 -0.760137,1.72482 -1.724812,1.72482 -0.96469,0 -1.727915,-0.760128 -1.727915,-1.72482 0,-0.964691 0.763218,-1.727933 1.727915,-1.727933 z"
         style="color:#000000;font-style:normal;font-variant:normal;font-weight:normal;font-stretch:normal;font-size:medium;line-height:normal;font-family:sans-serif;font-variant-ligatures:normal;font-variant-position:normal;font-variant-caps:normal;font-variant-numeric:normal;font-variant-alternates:normal;font-feature-settings:normal;text-indent:0;text-align:start;text-decoration:none;text-decoration-line:none;text-decoration-style:solid;text-decoration-color:#000000;letter-spacing:normal;word-spacing:normal;text-transform:none;writing-mode:lr-tb;direction:ltr;text-orientation:mixed;dominant-baseline:auto;baseline-shift:baseline;text-anchor:start;white-space:normal;shape-padding:0;clip-rule:nonzero;display:inline;overflow:visible;visibility:visible;opacity:1;isolation:auto;mix-blend-mode:normal;color-interpolation:sRGB;color-interpolation-filters:linearRGB;solid-color:#000000;solid-opacity:1;vector-effect:none;fill:#ffbf00;fill-opacity:1;fill-rule:nonzero;stroke:none;stroke-width:0.09158398;stroke-linecap:butt;stroke-linejoin:miter;stroke-miterlimit:4;stroke-dasharray:none;stroke-dashoffset:0;stroke-opacity:1;color-rendering:auto;image-rendering:auto;shape-rendering:auto;text-rendering:auto;enable-background:accumulate" /></g></g></svg>